<svg aria-hidden="true" style="position: absolute; width: 0; height: 0; overflow: hidden;" version="1.1" xmlns="http://www.w3.org/2000/svg" xmlns:xlink="http://www.w3.org/1999/xlink">
<defs>
<symbol id="icon-data" viewBox="0 0 32 32">
<path d="M16 0c-6.744 0-14 2.033-14 6.5v19c0 4.465 7.256 6.5 14 6.5s14-2.035 14-6.5v-19c0-4.467-7.258-6.5-14-6.5zM28 25.5c0 2.484-5.373 4.5-12 4.5-6.628 0-12-2.016-12-4.5v-3.736c2.066 2.129 7.050 3.236 12 3.236s9.934-1.107 12-3.236v3.736zM28 19.5h-0.004c0 0.010 0.004 0.021 0.004 0.031 0 2.469-5.373 4.469-12 4.469s-12-2-12-4.469c0-0.010 0.004-0.021 0.004-0.031h-0.004v-3.736c2.066 2.129 7.050 3.236 12 3.236s9.934-1.107 12-3.236v3.736zM28 13.5h-0.004c0 0.010 0.004 0.021 0.004 0.031 0 2.469-5.373 4.469-12 4.469s-12-2-12-4.469c0-0.010 0.004-0.021 0.004-0.031h-0.004v-3.436c2.621 1.997 7.425 2.936 12 2.936s9.379-0.939 12-2.936v3.436zM16 11c-6.628 0-12-2.016-12-4.5 0-2.486 5.372-4.5 12-4.5 6.627 0 12 2.014 12 4.5 0 2.484-5.373 4.5-12 4.5zM24 26c0-0.552 0.448-1 1-1s1 0.448 1 1c0 0.552-0.448 1-1 1s-1-0.448-1-1zM24 20c0-0.552 0.448-1 1-1s1 0.448 1 1c0 0.552-0.448 1-1 1s-1-0.448-1-1zM24 14c0-0.552 0.448-1 1-1s1 0.448 1 1c0 0.552-0.448 1-1 1s-1-0.448-1-1z"></path>
</symbol>
<symbol id="icon-linegraph" viewBox="0 0 42 32">
<path d="M39 0c-1.654 0-3 1.346-3 3 0 0.888 0.396 1.679 1.011 2.229l-8.8 14.031c-0.371-0.165-0.78-0.26-1.211-0.26-0.868 0-1.644 0.376-2.193 0.967l-9.073-5.745c0.168-0.374 0.266-0.786 0.266-1.222 0-1.654-1.346-3-3-3s-3 1.346-3 3c0 0.904 0.41 1.706 1.044 2.256l-6.895 10.975c-0.354-0.148-0.742-0.231-1.149-0.231-1.654 0-3 1.346-3 3s1.346 3 3 3 3-1.346 3-3c0-0.888-0.395-1.678-1.010-2.228l6.904-10.99c0.343 0.138 0.715 0.218 1.106 0.218 0.859 0 1.629-0.367 2.176-0.947l9.078 5.748c-0.161 0.368-0.254 0.772-0.254 1.199 0 1.654 1.346 3 3 3s3-1.346 3-3c0-0.863-0.371-1.636-0.957-2.184l8.81-14.046c0.354 0.147 0.741 0.23 1.147 0.23 1.654 0 3-1.346 3-3s-1.346-3-3-3zM5 29c0 1.103-0.897 2-2 2s-2-0.897-2-2 0.897-2 2-2 2 0.897 2 2zM13 15c-1.103 0-2-0.897-2-2s0.897-2 2-2 2 0.897 2 2-0.897 2-2 2zM27 24c-1.103 0-2-0.897-2-2s0.897-2 2-2 2 0.897 2 2-0.897 2-2 2zM39 5c-1.103 0-2-0.897-2-2s0.897-2 2-2 2 0.897 2 2-0.897 2-2 2z"></path>
</symbol>
<symbol id="icon-desktop" viewBox="0 0 39 32">
<path d="M1.5 25h17.5v1.5c0 0.276 0.224 0.5 0.5 0.5s0.5-0.224 0.5-0.5v-1.5h17.5c0.827 0 1.5-0.673 1.5-1.5v-22c0-0.827-0.673-1.5-1.5-1.5h-36c-0.827 0-1.5 0.673-1.5 1.5v22c0 0.827 0.673 1.5 1.5 1.5zM1 1.5c0-0.276 0.224-0.5 0.5-0.5h36c0.276 0 0.5 0.224 0.5 0.5v22c0 0.276-0.224 0.5-0.5 0.5h-36c-0.276 0-0.5-0.224-0.5-0.5v-22zM3.5 22h32c0.276 0 0.5-0.224 0.5-0.5v-18c0-0.276-0.224-0.5-0.5-0.5h-32c-0.276 0-0.5 0.224-0.5 0.5v18c0 0.276 0.224 0.5 0.5 0.5zM4 4h31v17h-31v-17zM14 28c-1.14 0-2 0.86-2 2v1.5c0 0.276 0.224 0.5 0.5 0.5h14c0.276 0 0.5-0.224 0.5-0.5v-1.425c0-1.163-0.878-2.075-2-2.075h-11zM26 30.075v0.925h-13v-1c0-0.589 0.411-1 1-1h11c0.57 0 1 0.462 1 1.075z"></path>
</symbol>
<symbol id="icon-layers" viewBox="0 0 32 32">
<path d="M30.765 7.262l-11.543-6.515c-1.571-0.887-4.271-0.888-5.845 0l-11.543 6.515c-0.883 0.499-1.368 1.197-1.368 1.967s0.486 1.468 1.368 1.966l11.543 6.516c0.786 0.444 1.824 0.688 2.922 0.688s2.137-0.245 2.923-0.688l11.543-6.516c0.883-0.498 1.369-1.196 1.369-1.966s-0.487-1.468-1.369-1.967zM30.239 10.265l-11.543 6.516c-1.238 0.699-3.556 0.7-4.794 0l-11.543-6.516c-0.524-0.296-0.824-0.674-0.824-1.036s0.3-0.74 0.824-1.037l11.543-6.516c0.619-0.35 1.493-0.55 2.396-0.55 0.904 0 1.778 0.201 2.397 0.55l11.543 6.516c0.524 0.296 0.825 0.674 0.825 1.037 0.001 0.362-0.299 0.74-0.824 1.036zM30.765 14.099c-0.256-0.145-0.582-0.055-0.729 0.203-0.145 0.257-0.054 0.583 0.203 0.728 0.524 0.296 0.825 0.674 0.825 1.036s-0.301 0.74-0.825 1.036l-11.543 6.516c-1.298 0.733-3.494 0.734-4.794 0l-11.543-6.516c-0.524-0.296-0.824-0.674-0.824-1.036s0.3-0.74 0.824-1.036c0.257-0.145 0.348-0.471 0.203-0.728s-0.473-0.349-0.729-0.203c-0.883 0.498-1.368 1.197-1.368 1.967s0.485 1.469 1.368 1.967l11.543 6.516c0.819 0.462 1.871 0.694 2.922 0.694s2.104-0.231 2.923-0.694l11.543-6.516c0.883-0.498 1.369-1.197 1.369-1.967s-0.486-1.469-1.368-1.967zM30.765 20.804c-0.256-0.145-0.582-0.055-0.729 0.203-0.145 0.257-0.054 0.583 0.203 0.728 0.524 0.296 0.825 0.674 0.825 1.036s-0.301 0.74-0.825 1.037l-11.543 6.516c-1.298 0.733-3.494 0.734-4.794 0l-11.543-6.517c-0.524-0.296-0.824-0.674-0.824-1.037 0-0.362 0.3-0.74 0.824-1.036 0.257-0.145 0.348-0.471 0.203-0.728s-0.473-0.349-0.729-0.203c-0.881 0.499-1.367 1.197-1.367 1.968s0.485 1.469 1.368 1.967l11.543 6.516c0.819 0.462 1.871 0.694 2.922 0.694 1.052 0 2.104-0.231 2.923-0.694l11.543-6.516c0.883-0.499 1.369-1.197 1.369-1.967s-0.487-1.469-1.369-1.967z"></path>
</symbol>
<symbol id="icon-telescope" viewBox="0 0 35 32">
<path d="M27.464 2.314c-0.053-0.132-0.159-0.235-0.292-0.284s-0.281-0.039-0.406 0.027l-11.906 6.282c-0.224 0.118-0.324 0.385-0.233 0.621l0.245 0.641-6.873 3.769c-0.225 0.123-0.32 0.395-0.222 0.63l0.228 0.549-7.299 3.488c-0.24 0.115-0.348 0.397-0.246 0.643l1.498 3.61c0.080 0.192 0.265 0.309 0.462 0.309 0.056 0 0.112-0.009 0.167-0.029l7.625-2.701 0.228 0.549c0.079 0.191 0.264 0.309 0.462 0.309 0.046 0 0.092-0.006 0.139-0.020l7.276-2.097 0.218 0.569c0.074 0.197 0.263 0.321 0.465 0.321 0.049 0 0.098-0.007 0.147-0.022l13-4c0.134-0.041 0.244-0.136 0.304-0.262s0.065-0.272 0.013-0.401l-5-12.501zM2.7 21.469l-1.134-2.734 6.823-3.261 1.439 3.47-7.128 2.525zM11.191 19.623l-0.238-0.574c0 0 0 0 0 0l-1.843-4.445c0 0 0 0 0 0l-0.238-0.573 6.336-3.475 2.374 6.134 0.375 0.981-6.766 1.952zM19.3 18.385l-0.203-0.531c-0.003-0.011-0.001-0.024-0.006-0.035l-0.618-1.597-2.754-7.206 11.023-5.815 4.592 11.48-12.034 3.704zM28.964 0.314c-0.103-0.257-0.395-0.381-0.65-0.279-0.256 0.103-0.381 0.394-0.279 0.65l6 15c0.079 0.196 0.267 0.315 0.465 0.315 0.062 0 0.125-0.011 0.186-0.036 0.256-0.103 0.381-0.394 0.279-0.65l-6.001-15zM18 21h-3c-1.14 0-2 0.86-2 2v1.315l-5.879 6.859c-0.18 0.209-0.156 0.525 0.054 0.705 0.094 0.081 0.21 0.121 0.325 0.121 0.141 0 0.281-0.059 0.379-0.175l5.851-6.825h2.27v6.5c0 0.276 0.224 0.5 0.5 0.5s0.5-0.224 0.5-0.5v-6.5h2.27l5.85 6.825c0.099 0.116 0.239 0.175 0.38 0.175 0.115 0 0.231-0.040 0.325-0.121 0.21-0.18 0.234-0.495 0.054-0.705l-5.879-6.859v-1.24c0-1.163-0.878-2.075-2-2.075zM19 24h-5v-1c0-0.589 0.411-1 1-1h3c0.57 0 1 0.462 1 1.075v0.925z"></path>
</symbol>
<symbol id="icon-circle-compass" viewBox="0 0 23 32">
<path d="M11.514 6c0.276 0 0.5-0.224 0.5-0.5v-1.5h0.486c0.276 0 0.5-0.224 0.5-0.5v-3c0-0.276-0.224-0.5-0.5-0.5h-2c-0.276 0-0.5 0.224-0.5 0.5v3c0 0.276 0.224 0.5 0.5 0.5h0.514v1.5c0 0.276 0.223 0.5 0.5 0.5zM11 1h1v2h-1v-2zM0.268 31.817c0.074 0.039 0.153 0.058 0.232 0.058 0.18 0 0.354-0.098 0.442-0.268l4.292-8.173c1.925 0.967 4.059 1.49 6.279 1.49 2.214 0 4.344-0.521 6.265-1.483l4.278 8.166c0.090 0.17 0.264 0.268 0.443 0.268 0.078 0 0.158-0.019 0.232-0.057 0.244-0.129 0.339-0.431 0.211-0.676l-4.288-8.185c0.991-0.59 1.922-1.292 2.758-2.128 0.975-0.975 0.975-2.561 0-3.535-0.945-0.945-2.594-0.943-3.535 0-0.473 0.473-0.994 0.88-1.545 1.23l-2.358-4.501c0.913-0.729 1.511-1.837 1.511-3.093 0-2.19-1.782-3.973-3.973-3.973s-3.97 1.783-3.97 3.974c0 1.255 0.596 2.362 1.507 3.091l-2.363 4.498c-0.548-0.35-1.066-0.755-1.536-1.225-0.945-0.945-2.594-0.943-3.535 0-0.975 0.975-0.975 2.561 0 3.535 0.832 0.832 1.759 1.532 2.745 2.12l-4.302 8.192c-0.129 0.245-0.035 0.547 0.21 0.675zM3.382 17.562c0.401 0 0.778 0.156 1.062 0.439 1.886 1.886 4.396 2.924 7.070 2.924s5.186-1.038 7.072-2.924c0.566-0.567 1.555-0.565 2.121 0 0.585 0.585 0.585 1.536 0 2.121-2.452 2.451-5.718 3.802-9.193 3.802-3.477 0-6.74-1.351-9.191-3.802-0.585-0.585-0.585-1.536 0-2.121 0.282-0.282 0.658-0.439 1.059-0.439zM8.542 10.931c0-1.639 1.333-2.973 2.972-2.973s2.973 1.334 2.973 2.973-1.334 2.973-2.973 2.973-2.972-1.335-2.972-2.973zM9.899 14.553c0.494 0.221 1.039 0.351 1.615 0.351 0.574 0 1.117-0.128 1.61-0.348l2.335 4.457c-1.214 0.592-2.553 0.914-3.945 0.914-1.396 0-2.738-0.323-3.954-0.918l2.339-4.456z"></path>
</symbol>
<symbol id="icon-lightbulb" viewBox="0 0 22 32">
<path d="M11 0c-5.29 0-11 4.206-11 11 0 3.353 1.334 6.174 3.896 8.312 0.027 0.034 0.058 0.063 0.092 0.088 1.901 2.062 1.997 2.454 2.010 3.361 0.006 0.359 0.003 0.465 0 0.523l-0.004 0.209c-0.015 0.452-0.038 1.209 0.899 1.495l8.094 1.781c0.036 0.008 0.072 0.012 0.107 0.012 0.23 0 0.437-0.159 0.488-0.393 0.060-0.27-0.111-0.537-0.381-0.596l-8.055-1.771c-0.155-0.047-0.168-0.051-0.154-0.498l0.003-0.191c0 0 0.010-0.078 0.002-0.586-0.019-1.269-0.295-1.882-2.309-4.059-0.039-0.048-0.086-0.088-0.138-0.118-2.356-2.003-3.55-4.549-3.55-7.569 0-6.177 5.19-10 10-10 4.916 0 10 3.741 10 10 0 3.978-1.928 6.171-3.518 7.551-0.055 0.026-0.104 0.063-0.147 0.109-2.037 2.204-2.313 2.817-2.332 4.086 0 0.030-0.001 0.065 0 0.103l-0.001 0.035c-0.003 0.076-0.014 0.118-0.013 0.134-0.034-0.005-0.117-0.018-0.117-0.018l-4.195-0.987c-0.272-0.062-0.538 0.104-0.601 0.372s0.103 0.538 0.372 0.602l4.144 0.972c0.055 0.020 0.553 0.182 0.973-0.113 0.183-0.129 0.396-0.382 0.434-0.866l0.003-0.047c0.001-0.032 0.002-0.065 0.002-0.099 0-0.009 0-0.018-0.001-0.026l0.001-0.046c0.013-0.902 0.107-1.294 2.005-3.356 0.009-0.007 0.019-0.014 0.027-0.022 2.667-2.241 3.964-4.984 3.964-8.384 0-6.885-5.593-11-11-11zM15 29.5c0.229 0 0.435-0.157 0.487-0.39 0.062-0.269-0.107-0.537-0.377-0.598l-8-1.814c-0.271-0.060-0.537 0.108-0.598 0.377-0.062 0.269 0.107 0.537 0.377 0.598l8 1.814c0.038 0.009 0.075 0.013 0.111 0.013zM7.609 29.554c-0.271-0.060-0.536 0.109-0.598 0.378-0.060 0.27 0.109 0.537 0.379 0.597l6.5 1.458c0.038 0.009 0.074 0.013 0.11 0.013 0.229 0 0.436-0.158 0.488-0.391 0.060-0.27-0.109-0.537-0.379-0.597l-6.5-1.458z"></path>
</symbol>
<symbol id="icon-documents" viewBox="0 0 34 32">
<path d="M1.512 28h17.988c0.827 0 1.5-0.673 1.5-1.5v-19c0-0.023-0.010-0.043-0.013-0.065s-0.007-0.041-0.013-0.062c-0.023-0.086-0.060-0.166-0.122-0.227l-6.999-6.999c-0.061-0.061-0.141-0.098-0.227-0.122-0.021-0.006-0.040-0.010-0.062-0.013s-0.041-0.012-0.064-0.012h-11.994c-0.83 0-1.506 0.673-1.506 1.5v25c0 0.827 0.678 1.5 1.512 1.5zM14 1.707l5.293 5.293h-4.793c-0.275 0-0.5-0.224-0.5-0.5v-4.793zM1 1.5c0-0.276 0.227-0.5 0.506-0.5h11.494v5.5c0 0.827 0.673 1.5 1.5 1.5h5.5v18.5c0 0.276-0.225 0.5-0.5 0.5h-17.988c-0.283 0-0.512-0.224-0.512-0.5v-25zM4.5 12h12c0.276 0 0.5-0.224 0.5-0.5s-0.224-0.5-0.5-0.5h-12c-0.276 0-0.5 0.224-0.5 0.5s0.224 0.5 0.5 0.5zM4.5 16h12c0.276 0 0.5-0.224 0.5-0.5s-0.224-0.5-0.5-0.5h-12c-0.276 0-0.5 0.224-0.5 0.5s0.224 0.5 0.5 0.5zM4.5 8h5c0.276 0 0.5-0.224 0.5-0.5s-0.224-0.5-0.5-0.5h-5c-0.276 0-0.5 0.224-0.5 0.5s0.224 0.5 0.5 0.5zM4.5 20h12c0.276 0 0.5-0.224 0.5-0.5s-0.224-0.5-0.5-0.5h-12c-0.276 0-0.5 0.224-0.5 0.5s0.224 0.5 0.5 0.5zM4.5 24h12c0.276 0 0.5-0.224 0.5-0.5s-0.224-0.5-0.5-0.5h-12c-0.276 0-0.5 0.224-0.5 0.5s0.224 0.5 0.5 0.5zM21.5 5h4.5v5.5c0 0.827 0.673 1.5 1.5 1.5h5.5v18.5c0 0.276-0.225 0.5-0.5 0.5h-17.988c-0.283 0-0.512-0.224-0.512-0.5v-1c0-0.276-0.224-0.5-0.5-0.5s-0.5 0.224-0.5 0.5v1c0 0.827 0.678 1.5 1.512 1.5h17.988c0.827 0 1.5-0.673 1.5-1.5v-19c0-0.023-0.010-0.043-0.013-0.065s-0.007-0.041-0.013-0.062c-0.023-0.086-0.060-0.166-0.122-0.227l-6.999-6.999c-0.061-0.062-0.142-0.099-0.228-0.122-0.021-0.006-0.039-0.009-0.061-0.012s-0.041-0.013-0.064-0.013h-5c-0.276 0-0.5 0.224-0.5 0.5s0.224 0.5 0.5 0.5zM27.5 11c-0.275 0-0.5-0.224-0.5-0.5v-4.793l5.293 5.293h-4.793zM23.5 16h6c0.276 0 0.5-0.224 0.5-0.5s-0.224-0.5-0.5-0.5h-6c-0.276 0-0.5 0.224-0.5 0.5s0.224 0.5 0.5 0.5zM23.5 20h6c0.276 0 0.5-0.224 0.5-0.5s-0.224-0.5-0.5-0.5h-6c-0.276 0-0.5 0.224-0.5 0.5s0.224 0.5 0.5 0.5zM23.5 24h6c0.276 0 0.5-0.224 0.5-0.5s-0.224-0.5-0.5-0.5h-6c-0.276 0-0.5 0.224-0.5 0.5s0.224 0.5 0.5 0.5zM23.5 28h6c0.276 0 0.5-0.224 0.5-0.5s-0.224-0.5-0.5-0.5h-6c-0.276 0-0.5 0.224-0.5 0.5s0.224 0.5 0.5 0.5z"></path>
</symbol>
<symbol id="icon-video" viewBox="0 0 37 32">
<path d="M7.5 0h-6c-0.869 0-1.5 0.631-1.5 1.5v29c0 0.869 0.631 1.5 1.5 1.5h34c0.869 0 1.5-0.631 1.5-1.5v-29c0-0.869-0.631-1.5-1.5-1.5h-28zM1 30.5v-29c0-0.313 0.187-0.5 0.5-0.5h5.5v30h-5.5c-0.313 0-0.5-0.187-0.5-0.5zM8 31v-30h21v30h-21zM36 1.5v29c0 0.313-0.187 0.5-0.5 0.5h-5.5v-30h5.5c0.313 0 0.5 0.187 0.5 0.5zM14.777 10.084c-0.153-0.102-0.351-0.112-0.514-0.025-0.161 0.087-0.263 0.256-0.263 0.441v12c0 0.185 0.102 0.354 0.264 0.441 0.074 0.039 0.155 0.059 0.236 0.059 0.097 0 0.193-0.028 0.277-0.084l9-6c0.139-0.093 0.223-0.249 0.223-0.416s-0.084-0.323-0.223-0.416l-9-6zM15 21.566v-10.132l7.599 5.066-7.599 5.066zM5 8h-2c-0.276 0-0.5 0.224-0.5 0.5s0.224 0.5 0.5 0.5h2c0.276 0 0.5-0.224 0.5-0.5s-0.224-0.5-0.5-0.5zM3 5h2c0.276 0 0.5-0.224 0.5-0.5s-0.224-0.5-0.5-0.5h-2c-0.276 0-0.5 0.224-0.5 0.5s0.224 0.5 0.5 0.5zM5 12h-2c-0.276 0-0.5 0.224-0.5 0.5s0.224 0.5 0.5 0.5h2c0.276 0 0.5-0.224 0.5-0.5s-0.224-0.5-0.5-0.5zM5 16h-2c-0.276 0-0.5 0.224-0.5 0.5s0.224 0.5 0.5 0.5h2c0.276 0 0.5-0.224 0.5-0.5s-0.224-0.5-0.5-0.5zM5 20h-2c-0.276 0-0.5 0.224-0.5 0.5s0.224 0.5 0.5 0.5h2c0.276 0 0.5-0.224 0.5-0.5s-0.224-0.5-0.5-0.5zM5 24h-2c-0.276 0-0.5 0.224-0.5 0.5s0.224 0.5 0.5 0.5h2c0.276 0 0.5-0.224 0.5-0.5s-0.224-0.5-0.5-0.5zM5 28h-2c-0.276 0-0.5 0.224-0.5 0.5s0.224 0.5 0.5 0.5h2c0.276 0 0.5-0.224 0.5-0.5s-0.224-0.5-0.5-0.5zM32 9h2c0.276 0 0.5-0.224 0.5-0.5s-0.224-0.5-0.5-0.5h-2c-0.276 0-0.5 0.224-0.5 0.5s0.224 0.5 0.5 0.5zM32 5h2c0.276 0 0.5-0.224 0.5-0.5s-0.224-0.5-0.5-0.5h-2c-0.276 0-0.5 0.224-0.5 0.5s0.224 0.5 0.5 0.5zM32 13h2c0.276 0 0.5-0.224 0.5-0.5s-0.224-0.5-0.5-0.5h-2c-0.276 0-0.5 0.224-0.5 0.5s0.224 0.5 0.5 0.5zM32 17h2c0.276 0 0.5-0.224 0.5-0.5s-0.224-0.5-0.5-0.5h-2c-0.276 0-0.5 0.224-0.5 0.5s0.224 0.5 0.5 0.5zM32 21h2c0.276 0 0.5-0.224 0.5-0.5s-0.224-0.5-0.5-0.5h-2c-0.276 0-0.5 0.224-0.5 0.5s0.224 0.5 0.5 0.5zM32 25h2c0.276 0 0.5-0.224 0.5-0.5s-0.224-0.5-0.5-0.5h-2c-0.276 0-0.5 0.224-0.5 0.5s0.224 0.5 0.5 0.5zM34 28h-2c-0.276 0-0.5 0.224-0.5 0.5s0.224 0.5 0.5 0.5h2c0.276 0 0.5-0.224 0.5-0.5s-0.224-0.5-0.5-0.5z"></path>
</symbol>
<symbol id="icon-attachment" viewBox="0 0 32 32">
<path d="M18.986 16.471c0.164 0.018 0.327 0.026 0.49 0.026 1.216 0 2.382-0.481 3.258-1.357l7.405-7.405c0.866-0.866 1.349-2.014 1.356-3.231 0.009-1.22-0.459-2.364-1.316-3.222-0.85-0.85-1.98-1.317-3.188-1.317-0.011 0-0.021 0-0.033 0-1.217 0.008-2.364 0.49-3.23 1.356l-7.405 7.405c-1.095 1.095-1.569 2.649-1.269 4.157 0.058 0.29 0.346 0.479 0.629 0.419 0.29-0.058 0.478-0.339 0.42-0.628-0.231-1.157 0.134-2.351 0.976-3.192l7.405-7.405c0.666-0.667 1.548-1.037 2.482-1.043 0.975 0 1.805 0.35 2.458 1.003s1.010 1.527 1.004 2.458c-0.007 0.935-0.377 1.816-1.044 2.482l-7.405 7.405c-0.764 0.763-1.813 1.133-2.879 1.024-0.285-0.033-0.557 0.181-0.588 0.475-0.032 0.296 0.181 0.559 0.474 0.59zM15.14 23.273c1.148-1.148 1.608-2.769 1.229-4.334-0.069-0.287-0.351-0.466-0.646-0.394-0.287 0.069-0.463 0.358-0.394 0.645 0.291 1.201-0.063 2.444-0.946 3.328l-7.405 7.405c-0.666 0.667-1.548 1.037-2.482 1.043-0.959 0.005-1.805-0.349-2.458-1.003-0.653-0.653-1.010-1.526-1.003-2.458 0.006-0.935 0.377-1.816 1.043-2.483l7.405-7.405c0.771-0.771 1.822-1.144 2.906-1.021 0.288 0.022 0.559-0.177 0.592-0.471 0.033-0.293-0.177-0.558-0.471-0.592-1.404-0.158-2.78 0.324-3.783 1.327l-7.405 7.405c-0.866 0.866-1.348 2.014-1.356 3.231-0.009 1.22 0.459 2.364 1.316 3.222 0.85 0.85 1.98 1.317 3.188 1.317 0.011 0 0.021 0 0.033 0 1.217-0.008 2.364-0.49 3.23-1.356l7.407-7.406zM22.734 8.872c-0.209-0.209-0.547-0.209-0.756 0l-13.5 13.5c-0.209 0.208-0.209 0.547 0 0.756 0.104 0.104 0.241 0.157 0.378 0.157s0.273-0.052 0.378-0.157l13.5-13.5c0.209-0.209 0.209-0.547 0-0.756z"></path>
</symbol>
<symbol id="icon-magnifying-glass" viewBox="0 0 32 32">
<path d="M10.5 0c-5.79 0-10.5 4.71-10.5 10.5s4.71 10.5 10.5 10.5c2.725 0 5.203-1.052 7.071-2.76 0.022 0.039 0.042 0.080 0.076 0.114l2.151 2.151c-0.18 0.304-0.282 0.648-0.282 1.011 0 0.534 0.208 1.036 0.586 1.414l8.485 8.485c0.377 0.377 0.879 0.585 1.413 0.585s1.036-0.208 1.414-0.586 0.586-0.88 0.586-1.414-0.208-1.036-0.586-1.414l-8.485-8.485c-0.634-0.634-1.659-0.729-2.42-0.299l-2.155-2.155c-0.034-0.034-0.074-0.054-0.114-0.076 1.708-1.868 2.76-4.346 2.76-7.071 0-5.79-4.71-10.5-10.5-10.5zM22.222 20.808l8.485 8.485c0.189 0.189 0.293 0.44 0.293 0.707s-0.104 0.518-0.293 0.707c-0.379 0.377-1.035 0.377-1.414 0l-8.485-8.485c-0.188-0.189-0.293-0.44-0.293-0.707s0.104-0.518 0.293-0.707c0.189-0.188 0.44-0.293 0.707-0.293s0.517 0.104 0.707 0.293zM10.5 20c-5.238 0-9.5-4.262-9.5-9.5s4.262-9.5 9.5-9.5 9.5 4.262 9.5 9.5-4.262 9.5-9.5 9.5zM10.5 3c-4.136 0-7.5 3.364-7.5 7.5s3.364 7.5 7.5 7.5 7.5-3.364 7.5-7.5-3.364-7.5-7.5-7.5zM10.5 17c-3.584 0-6.5-2.916-6.5-6.5s2.916-6.5 6.5-6.5 6.5 2.916 6.5 6.5-2.916 6.5-6.5 6.5z"></path>
</symbol>
<symbol id="icon-wine" viewBox="0 0 23 32">
<path d="M22.802 7.661c0-2.253-0.687-5.534-1.999-7.444-0.093-0.136-0.247-0.217-0.412-0.217h-17.98c-0.165 0-0.319 0.081-0.412 0.217-1.312 1.912-1.999 5.192-1.999 7.444 0 5.932 4.73 12.529 11 12.869v8.47h-4.099c-1.141-0.075-2 0.784-2 1.925v0.575c0 0.276 0.224 0.5 0.5 0.5h12c0.276 0 0.5-0.224 0.5-0.5v-0.5c0-1.164-0.879-2.075-2-2h-3.901v-8.47c6.27-0.34 10.802-6.937 10.802-12.869zM16.901 31h-11v-0.075c0-0.589 0.411-1 1-1h9c0.571 0 1 0.462 1 1.075zM2.682 1h17.438c1.053 1.692 1.631 4.47 1.673 6.428-0.845-0.196-1.746-0.31-2.77-0.31-3.161 0-4.759 0.921-6.305 1.812-1.497 0.863-2.911 1.678-5.804 1.678s-4.305-0.817-5.801-1.68l-0.030-0.018c-0.050-0.419-0.083-0.837-0.083-1.249 0-1.963 0.588-4.902 1.682-6.661zM1.311 10.188c1.357 0.749 2.913 1.418 5.604 1.418 3.16 0 4.758-0.921 6.304-1.812 1.497-0.862 2.911-1.678 5.805-1.678 1.025 0 1.919 0.11 2.739 0.32-0.397 5.312-4.777 11.125-10.361 11.125-4.974 0.001-8.989-4.612-10.091-9.373z"></path>
</symbol>
<symbol id="icon-mobile" viewBox="0 0 32 32">
<path d="M1.5 32h14c0.276 0 0.5-0.224 0.5-0.5s-0.224-0.5-0.5-0.5h-14c-0.276 0-0.5-0.224-0.5-0.5v-29c0-0.276 0.224-0.5 0.5-0.5h21c0.276 0 0.5 0.224 0.5 0.5v5c0 0.276 0.224 0.5 0.5 0.5s0.5-0.224 0.5-0.5v-5c0-0.827-0.673-1.5-1.5-1.5h-21c-0.827 0-1.5 0.673-1.5 1.5v29c0 0.827 0.673 1.5 1.5 1.5zM18 10.5v20c0 0.827 0.673 1.5 1.5 1.5h11c0.827 0 1.5-0.673 1.5-1.5v-20c0-0.827-0.673-1.5-1.5-1.5h-11c-0.827 0-1.5 0.673-1.5 1.5zM31 10.5v20c0 0.276-0.224 0.5-0.5 0.5h-11c-0.276 0-0.5-0.224-0.5-0.5v-20c0-0.276 0.224-0.5 0.5-0.5h11c0.276 0 0.5 0.224 0.5 0.5zM11 28c0 0.552 0.448 1 1 1s1-0.448 1-1c0-0.552-0.448-1-1-1s-1 0.448-1 1zM24 28c0 0.552 0.448 1 1 1s1-0.448 1-1c0-0.552-0.448-1-1-1s-1 0.448-1 1z"></path>
</symbol>
<symbol id="icon-tools" viewBox="0 0 31 32">
<path d="M0.211 5.646c-0.847 0.848-0.666 2.042 0.008 2.715 0.027 0.026 2.734 2.612 6.541 6.419 0.098 0.098 0.226 0.146 0.354 0.146s0.256-0.049 0.354-0.146c0.195-0.195 0.195-0.512 0-0.707-0.574-0.574-1.12-1.117-1.638-1.631l1.589-1.589c0.195-0.195 0.195-0.512 0-0.707s-0.512-0.195-0.707 0l-1.593 1.593c-0.891-0.88-1.676-1.648-2.315-2.271l3.615-3.615c0.195-0.195 0.195-0.512 0-0.707s-0.512-0.195-0.707 0l-3.626 3.626c-0.736-0.713-1.16-1.118-1.167-1.125-0.211-0.211-0.488-0.805 0-1.293l5-5c0.193-0.196 0.707-0.585 1.271-0.024 0.025 0.028 2.55 2.896 6.404 6.75 0.195 0.195 0.512 0.195 0.707 0s0.195-0.512 0-0.707c-3.83-3.829-6.336-6.675-6.382-6.727-0.932-0.93-2.056-0.651-2.707 0l-5.001 5zM21.419 24.146c-0.195-0.195-0.512-0.195-0.707 0l-1.591 1.59c-0.485-0.491-0.994-1.005-1.53-1.541-0.195-0.195-0.512-0.195-0.707 0s-0.195 0.512 0 0.707c3.704 3.703 6.291 6.469 6.328 6.509 0.343 0.344 0.813 0.533 1.323 0.533v0c0.525 0 1.056-0.205 1.385-0.535l4.998-5.057c0.629-0.629 0.665-1.696 0.078-2.285l-6.706-6.705c-0.195-0.195-0.512-0.195-0.707 0s-0.195 0.512 0 0.707l6.706 6.705c0.2 0.2 0.162 0.632-0.079 0.873l-4.999 5.057c-0.115 0.116-0.376 0.24-0.676 0.24 0 0 0 0 0 0-0.172 0-0.418-0.042-0.604-0.229-0.010-0.011-0.429-0.458-1.156-1.219l3.644-3.644c0.195-0.195 0.195-0.512 0-0.707s-0.512-0.195-0.707 0l-3.629 3.629c-0.624-0.649-1.389-1.438-2.26-2.326l1.596-1.596c0.195-0.194 0.195-0.51 0-0.706zM-0.293 31.829c0.096 0.098 0.225 0.15 0.358 0.15 0.048 0 0.096-0.007 0.143-0.021l10-2.979c0.081-0.024 0.153-0.067 0.212-0.127l17.090-17.205c0.024-0.024 0.036-0.055 0.054-0.082l3.656-3.656c0.294-0.295 0.457-0.686 0.457-1.103s-0.163-0.807-0.457-1.1l-5.235-5.234c-0.588-0.588-1.615-0.588-2.203 0l-3.739 3.739c-0.024 0.024-0.037 0.055-0.055 0.083l-17.116 17.117c-0.056 0.056-0.098 0.124-0.122 0.199l-3.16 9.715c-0.058 0.177-0.013 0.37 0.117 0.504zM20.425 5.271l1.039 1.039-15.523 15.565-1.727-0.392 16.211-16.212zM6.565 22.666l15.607-15.648 2.436 2.436-15.748 15.546h-2.295v-2.334zM26.449 11.296l-16.244 16.354-0.577-2.002 15.687-15.487 1.134 1.135zM3.558 22.359l2.007 0.456v2.685c0 0.276 0.224 0.5 0.5 0.5h2.624l0.634 2.2-8.488 2.529 2.723-8.37zM24.49 1.179c0.211-0.211 0.578-0.211 0.789 0l5.235 5.235c0.105 0.105 0.163 0.245 0.163 0.394 0 0.148-0.058 0.289-0.164 0.395l-3.371 3.372-6.023-6.023 3.371-3.373z"></path>
</symbol>
</defs>
</svg>
