<?xml version="1.0" encoding="UTF-8" standalone="no"?>
<svg
   xmlns:dc="http://purl.org/dc/elements/1.1/"
   xmlns:cc="http://creativecommons.org/ns#"
   xmlns:rdf="http://www.w3.org/1999/02/22-rdf-syntax-ns#"
   xmlns:svg="http://www.w3.org/2000/svg"
   xmlns="http://www.w3.org/2000/svg"
   xmlns:sodipodi="http://sodipodi.sourceforge.net/DTD/sodipodi-0.dtd"
   xmlns:inkscape="http://www.inkscape.org/namespaces/inkscape"
   viewBox="0 -256 1950 1950"
   id="svg3013"
   version="1.1"
   inkscape:version="0.48.3.1 r9886"
   width="100%"
   height="100%"
   sodipodi:docname="money_font_awesome.svg">
  <metadata
     id="metadata3023">
    <rdf:RDF>
      <cc:Work
         rdf:about="">
        <dc:format>image/svg+xml</dc:format>
        <dc:type
           rdf:resource="http://purl.org/dc/dcmitype/StillImage" />
      </cc:Work>
    </rdf:RDF>
  </metadata>
  <defs
     id="defs3021" />
  <sodipodi:namedview
     pagecolor="#ffffff"
     bordercolor="#666666"
     borderopacity="1"
     objecttolerance="10"
     gridtolerance="10"
     guidetolerance="10"
     inkscape:pageopacity="0"
     inkscape:pageshadow="2"
     inkscape:window-width="640"
     inkscape:window-height="480"
     id="namedview3019"
     showgrid="false"
     inkscape:zoom="0.26339286"
     inkscape:cx="1149.33"
     inkscape:cy="1039.3004"
     inkscape:window-x="0"
     inkscape:window-y="25"
     inkscape:window-maximized="0"
     inkscape:current-layer="svg3013" />
  <g
     transform="matrix(1,0,0,-1,15.186441,1352.3051)"
     id="g3015">
    <path
       d="m 768,384 h 384 v 96 H 1024 V 928 H 910 L 762,791 839,711 q 42,37 55,57 h 2 V 480 H 768 v -96 z m 512,256 q 0,-70 -21,-142 -21,-72 -59.5,-134 Q 1161,302 1098,263 1035,224 960,224 885,224 822,263 759,302 720.5,364 682,426 661,498 q -21,72 -21,142 0,70 21,142 21,72 59.5,134 38.5,62 101.5,101 63,39 138,39 75,0 138,-39 63,-39 101.5,-101 38.5,-62 59.5,-134 21,-72 21,-142 z m 512,-256 v 512 q -106,0 -181,75 -75,75 -75,181 H 384 Q 384,1046 309,971 234,896 128,896 V 384 q 106,0 181,-75 75,-75 75,-181 h 1152 q 0,106 75,181 75,75 181,75 z m 128,832 V 64 Q 1920,38 1901,19 1882,0 1856,0 H 64 Q 38,0 19,19 0,38 0,64 v 1152 q 0,26 19,45 19,19 45,19 h 1792 q 26,0 45,-19 19,-19 19,-45 z"
       id="path3017"
       inkscape:connector-curvature="0"
       style="fill:currentColor" />
  </g>
</svg>
